<svg xmlns="http://www.w3.org/2000/svg" xmlns:xlink="http://www.w3.org/1999/xlink" viewBox="0 0 916.42 917.44">
  <defs>
    <style>
      .cls-1 {
        fill: url(#Adsız_degrade_20);
      }

      .cls-2 {
        fill: none;
      }

      .cls-3 {
        fill: url(#Adsız_degrade_25);
      }
    </style>
    <linearGradient id="Adsız_degrade_20" data-name="Adsız degrade 20" x1="392.92" y1="736.24" x2="302.43" y2="634.54" gradientUnits="userSpaceOnUse">
      <stop offset="0" stop-color="#38a6f9"/>
      <stop offset="0.5" stop-color="#0068ff"/>
      <stop offset="1" stop-color="#0b3cd6"/>
    </linearGradient>
    <linearGradient id="Adsız_degrade_25" data-name="Adsız degrade 25" x1="70.46" y1="456.24" x2="1119.97" y2="456.24" gradientTransform="translate(84.29 -61.82) rotate(11.57)" gradientUnits="userSpaceOnUse">
      <stop offset="0" stop-color="#38a6f9"/>
      <stop offset="0.73" stop-color="#0068ff"/>
      <stop offset="1" stop-color="#0b3cd6"/>
    </linearGradient>
  </defs>
  <title>RiverMc</title>
  <g id="katman_1" data-name="katman 1">
    <path class="cls-1" d="M206.55,745.2,305,814.12A312,312,0,0,1,434.17,564.19c-22-.23-75.64,2.24-129.19,37.43C230.2,650.76,210.57,727.61,206.55,745.2Z" transform="translate(-41.29 -41.27)"/>
    <path class="cls-2" d="M499.5,41.27" transform="translate(-41.29 -41.27)"/>
    <path class="cls-3" d="M864,641a198.71,198.71,0,0,1,15.77,20.27,204.3,204.3,0,0,1,30.35,71.5c6.71-22.36,34.73-124.42-21.21-223.91C862,461.13,826,432.07,802.73,416.44c24.86,2.22,73.1,10.31,117.9,45.47a210.56,210.56,0,0,1,37.08,37.57c-1.2-18.85-9.1-112.86-89.24-185-84.67-76.17-185.64-70-202.94-68.68A405.68,405.68,0,0,0,712,124.26a398,398,0,0,0,7.6-59.11,528.42,528.42,0,0,1-93.72,73.47c-89.29,54.91-176.16,71.4-230.52,76.83,2.92-27,13.23-84.79,58.26-135.1A225.5,225.5,0,0,1,499.5,41.27c-98.85,1.1-201,52.42-206.66,55.32A510.1,510.1,0,0,0,130.16,228.24c57.25,104.19,47.51,208.85-6.41,250.36-10,7.74-35.41,23.89-82.46,20.88a456.22,456.22,0,0,0,20.6,136.25c30.72,98.45,87.92,163,121.27,195.24,2.18-19.76,15.53-123.13,106.55-192.67,60.72-46.4,124.67-53.79,151.34-55.32,3.3-.51,27.27-4.58,40.71-27.14C493.3,536.47,489,517,488,513.05c108.87,18.49,189.18,112.89,190,221.8.77,105.84-73.78,199.48-178.48,222.84C520.72,959.41,673,969.41,776.44,862c15.48-16.07,76.48-79.39,86.68-175.39A261.85,261.85,0,0,0,864,641ZM389.77,406.78a318.24,318.24,0,0,0-107,67.68l17.61-86c19.87-14.8,41.37-29.8,64.52-44.68q22-14.13,43.13-26.38Q398.91,362.09,389.77,406.78Z" transform="translate(-41.29 -41.27)"/>
  </g>
</svg>
